<?xml version="1.0" standalone="no"?>
<!DOCTYPE svg PUBLIC "-//W3C//DTD SVG 20010904//EN"
 "http://www.w3.org/TR/2001/REC-SVG-20010904/DTD/svg10.dtd">
<svg version="1.0" xmlns="http://www.w3.org/2000/svg"
 width="293.000000pt" height="156.000000pt" viewBox="0 0 293.000000 156.000000"
 preserveAspectRatio="xMidYMid meet">
<metadata>
Created by oakpdf.com
</metadata>
<g transform="translate(0.000000,156.000000) scale(0.100000,-0.100000)"
fill="#000000" stroke="none">
<path d="M1870 1235 c7 -9 63 -52 124 -97 61 -45 129 -101 152 -123 48 -48
124 -158 124 -178 0 -19 -23 -29 -85 -36 -46 -6 -51 -9 -61 -39 l-10 -33 -17
41 c-14 36 -18 40 -35 31 -11 -6 -25 -25 -32 -43 -26 -71 -29 -75 -27 -38 2
30 -2 35 -21 38 -12 2 -33 13 -45 25 l-23 22 33 65 c18 36 36 87 39 113 6 43
5 47 -14 47 -11 0 -35 -15 -53 -32 -30 -31 -79 -119 -79 -145 0 -7 -6 -16 -13
-20 -27 -16 -129 -162 -125 -180 2 -12 21 11 57 70 29 49 55 86 57 84 3 -2 2
-23 -2 -46 -5 -32 -13 -45 -35 -57 -40 -20 -36 -34 11 -34 36 0 41 4 59 38 25
49 58 79 72 65 5 -5 13 -37 15 -69 3 -32 8 -65 10 -73 7 -21 76 55 94 103 22
59 36 55 46 -11 7 -42 14 -59 26 -61 12 -2 20 8 28 39 l12 42 19 -32 c11 -18
24 -29 30 -25 8 4 9 -5 5 -32 -9 -57 -26 -224 -26 -261 0 -18 4 -33 10 -33 13
0 37 85 75 274 l33 161 17 -40 c26 -58 33 -237 12 -313 -26 -99 -30 -132 -13
-132 10 0 18 21 26 73 18 105 32 147 140 408 93 223 140 353 140 385 0 34 -20
7 -64 -87 -41 -86 -61 -114 -134 -190 -82 -84 -112 -105 -112 -77 0 6 7 19 16
29 26 29 43 90 44 157 0 49 -3 62 -16 62 -18 0 -37 -43 -54 -127 -7 -35 -16
-63 -19 -63 -4 0 -15 14 -25 31 -33 56 -140 161 -255 251 -63 48 -121 88 -129
88 -12 0 -12 -3 -2 -15z m475 -280 c-3 -29 -13 -61 -21 -71 -15 -18 -15 -18
-10 1 2 11 10 52 17 90 14 77 25 63 14 -20z m113 -164 l-93 -223 -6 69 c-4 37
-14 87 -22 110 l-15 43 32 20 c40 24 146 134 171 177 10 18 20 31 22 29 2 -2
-38 -103 -89 -225z m-504 147 c-9 -29 -36 -82 -58 -118 l-41 -65 -3 34 c-5 48
33 142 75 187 43 47 51 35 27 -38z m284 -173 c-9 -21 -28 -35 -28 -21 0 2 -3
11 -6 19 -5 14 6 21 38 26 4 0 2 -10 -4 -24z m-255 -21 c3 -3 3 -13 0 -21 -5
-12 -7 -12 -14 -1 -15 23 -4 40 14 22z m215 -25 c-3 -8 -7 -3 -11 10 -4 17 -3
21 5 13 5 -5 8 -16 6 -23z m43 -35 c-5 -21 -9 -30 -10 -19 -1 24 10 67 15 62
3 -2 0 -22 -5 -43z"/>
<path d="M1813 1200 c-17 -10 -37 -28 -43 -40 -9 -17 -14 -19 -25 -10 -22 19
-85 29 -111 19 -20 -7 -24 -15 -24 -52 0 -25 -13 -96 -30 -158 -36 -136 -41
-253 -12 -267 9 -5 24 -7 32 -4 27 8 90 75 131 138 33 51 41 74 47 130 4 38 4
91 0 119 -9 60 7 90 58 111 19 8 34 19 34 24 0 15 -22 12 -57 -10z m-108 -54
c19 -8 35 -20 35 -27 0 -25 -33 -49 -67 -49 -31 0 -33 2 -27 27 6 22 4 25 -10
20 -19 -7 -22 13 -4 31 16 16 31 15 73 -2z m31 -271 c-14 -28 -51 -79 -82
-113 -45 -50 -59 -60 -70 -51 -21 17 -17 67 17 209 l30 129 40 -2 c29 -1 45 5
62 21 l22 23 3 -82 c2 -71 -1 -89 -22 -134z"/>
<path d="M824 1097 l-114 -115 0 59 c0 44 -4 61 -15 65 -18 7 -37 -14 -107
-118 -29 -42 -54 -76 -55 -74 -2 2 4 22 12 46 19 54 19 90 1 90 -19 0 -30 -17
-14 -22 21 -7 -16 -105 -98 -265 -41 -80 -74 -151 -74 -159 0 -37 30 -6 65 69
41 84 251 417 264 417 5 0 4 -21 0 -47 -11 -66 -11 -133 0 -133 5 0 20 19 34
43 34 58 217 246 224 229 8 -21 -46 -147 -152 -357 -56 -110 -107 -225 -114
-255 -19 -86 -25 -170 -13 -170 11 0 17 25 27 114 9 83 22 115 147 362 84 168
112 232 115 271 4 33 1 53 -7 58 -7 4 -54 -35 -126 -108z"/>
<path d="M1027 1048 c-83 -117 -101 -162 -104 -262 -2 -76 -6 -93 -24 -113
-13 -12 -27 -23 -33 -23 -6 0 -5 5 2 12 14 14 16 48 3 48 -5 0 -20 -15 -35
-34 -14 -19 -35 -38 -46 -41 -11 -3 -20 -11 -20 -17 0 -10 9 -9 93 9 16 3 38
18 49 34 20 27 23 28 39 13 15 -13 24 -14 50 -5 41 14 39 15 39 -12 0 -13 5
-28 11 -34 12 -12 97 -6 115 9 7 5 49 10 94 12 65 3 86 8 103 24 19 18 24 18
35 6 15 -16 53 -15 53 1 0 6 -9 11 -20 13 -13 2 -22 14 -27 35 -6 27 -8 29
-19 14 -7 -10 -26 -17 -47 -17 -38 0 -58 -15 -58 -42 0 -10 -7 -18 -15 -18
-10 0 -15 10 -15 30 0 25 -4 30 -25 30 -18 0 -29 -8 -37 -26 -12 -25 -12 -25
-20 -4 -11 30 -38 22 -66 -20 -33 -50 -42 -48 -42 9 0 55 -13 73 -30 42 -20
-39 -80 -51 -80 -16 0 7 22 59 49 116 57 120 100 264 84 280 -8 8 -24 -8 -56
-53z m8 -79 c-9 -30 -32 -94 -53 -143 l-37 -89 -3 49 c-2 27 1 65 7 85 11 38
89 164 96 157 3 -3 -2 -29 -10 -59z m195 -284 c0 -18 -5 -25 -20 -25 -24 0
-25 8 -3 32 21 23 23 23 23 -7z m100 11 c0 -2 -7 -7 -16 -10 -8 -3 -12 -2 -9
4 6 10 25 14 25 6z m-186 -30 c-3 -9 -10 -16 -15 -16 -6 0 -5 9 1 21 13 24 24
20 14 -5z m211 14 c-3 -5 -11 -10 -16 -10 -6 0 -7 5 -4 10 3 6 11 10 16 10 6
0 7 -4 4 -10z"/>
<path d="M411 966 c-109 -75 -121 -86 -100 -86 16 0 83 49 194 142 29 24 -12
0 -94 -56z"/>
<path d="M1050 779 c0 -5 5 -7 10 -4 6 3 10 8 10 11 0 2 -4 4 -10 4 -5 0 -10
-5 -10 -11z"/>
</g>
</svg>
